<svg width="1200" height="630" viewBox="0 0 1200 630" xmlns="http://www.w3.org/2000/svg">
  <!-- Background gradient -->
  <defs>
    <linearGradient id="bgGradient" x1="0%" y1="0%" x2="100%" y2="100%">
      <stop offset="0%" style="stop-color:#1e40af;stop-opacity:1" />
      <stop offset="100%" style="stop-color:#3b82f6;stop-opacity:1" />
    </linearGradient>
    <linearGradient id="containerGradient" x1="0%" y1="0%" x2="100%" y2="100%">
      <stop offset="0%" style="stop-color:#f59e0b;stop-opacity:1" />
      <stop offset="100%" style="stop-color:#f97316;stop-opacity:1" />
    </linearGradient>
  </defs>
  
  <!-- Background -->
  <rect width="1200" height="630" fill="url(#bgGradient)"/>
  
  <!-- Background pattern -->
  <g opacity="0.1">
    <circle cx="100" cy="100" r="2" fill="white"/>
    <circle cx="300" cy="150" r="2" fill="white"/>
    <circle cx="500" cy="80" r="2" fill="white"/>
    <circle cx="700" cy="200" r="2" fill="white"/>
    <circle cx="900" cy="120" r="2" fill="white"/>
    <circle cx="1100" cy="180" r="2" fill="white"/>
    <circle cx="200" cy="300" r="2" fill="white"/>
    <circle cx="400" cy="350" r="2" fill="white"/>
    <circle cx="600" cy="280" r="2" fill="white"/>
    <circle cx="800" cy="400" r="2" fill="white"/>
    <circle cx="1000" cy="320" r="2" fill="white"/>
    <circle cx="150" cy="500" r="2" fill="white"/>
    <circle cx="350" cy="550" r="2" fill="white"/>
    <circle cx="550" cy="480" r="2" fill="white"/>
    <circle cx="750" cy="600" r="2" fill="white"/>
    <circle cx="950" cy="520" r="2" fill="white"/>
    <circle cx="1150" cy="580" r="2" fill="white"/>
  </g>
  
  <!-- Ocean waves -->
  <g opacity="0.3">
    <path d="M0 500 Q200 480 400 500 Q600 520 800 500 Q1000 480 1200 500 L1200 630 L0 630 Z" fill="white"/>
    <path d="M0 520 Q200 500 400 520 Q600 540 800 520 Q1000 500 1200 520 L1200 630 L0 630 Z" fill="white" opacity="0.5"/>
  </g>
  
  <!-- Ship -->
  <g transform="translate(200, 450)">
    <!-- Ship body -->
    <path d="M0 0 L200 0 L180 30 L20 30 Z" fill="#374151"/>
    <!-- Ship deck -->
    <rect x="20" y="30" width="160" height="20" fill="#6b7280"/>
    <!-- Ship cabin -->
    <rect x="140" y="50" width="40" height="30" fill="#4b5563"/>
    <!-- Ship windows -->
    <circle cx="155" cy="65" r="3" fill="#fbbf24"/>
    <circle cx="165" cy="65" r="3" fill="#fbbf24"/>
    <!-- Ship flag -->
    <rect x="190" y="10" width="8" height="15" fill="#ef4444"/>
  </g>
  
  <!-- Containers -->
  <g transform="translate(400, 350)">
    <!-- Container 1 -->
    <rect x="0" y="0" width="80" height="60" fill="url(#containerGradient)" stroke="#1f2937" stroke-width="2"/>
    <rect x="5" y="5" width="70" height="50" fill="none" stroke="#1f2937" stroke-width="1"/>
    <line x1="0" y1="20" x2="80" y2="20" stroke="#1f2937" stroke-width="1"/>
    <line x1="0" y1="40" x2="80" y2="40" stroke="#1f2937" stroke-width="1"/>
    <!-- Container 2 -->
    <rect x="90" y="0" width="80" height="60" fill="url(#containerGradient)" stroke="#1f2937" stroke-width="2"/>
    <rect x="95" y="5" width="70" height="50" fill="none" stroke="#1f2937" stroke-width="1"/>
    <line x1="90" y1="20" x2="170" y2="20" stroke="#1f2937" stroke-width="1"/>
    <line x1="90" y1="40" x2="170" y2="40" stroke="#1f2937" stroke-width="1"/>
  </g>
  
  <!-- Truck -->
  <g transform="translate(600, 400)">
    <!-- Truck body -->
    <rect x="0" y="0" width="120" height="40" fill="#dc2626"/>
    <!-- Truck cabin -->
    <rect x="120" y="10" width="40" height="30" fill="#dc2626"/>
    <!-- Truck wheels -->
    <circle cx="30" cy="40" r="12" fill="#1f2937"/>
    <circle cx="30" cy="40" r="8" fill="#6b7280"/>
    <circle cx="130" cy="40" r="12" fill="#1f2937"/>
    <circle cx="130" cy="40" r="8" fill="#6b7280"/>
    <!-- Truck windows -->
    <rect x="125" y="15" width="30" height="15" fill="#e0f2fe"/>
    <line x1="125" y1="22" x2="155" y2="22" stroke="#1f2937" stroke-width="1"/>
  </g>
  
  <!-- Cargo ship -->
  <g transform="translate(800, 420)">
    <!-- Ship body -->
    <path d="M0 0 L150 0 L140 25 L10 25 Z" fill="#1f2937"/>
    <!-- Ship deck -->
    <rect x="10" y="25" width="130" height="15" fill="#374151"/>
    <!-- Containers on ship -->
    <rect x="20" y="40" width="30" height="25" fill="#f59e0b"/>
    <rect x="55" y="40" width="30" height="25" fill="#f59e0b"/>
    <rect x="90" y="40" width="30" height="25" fill="#f59e0b"/>
    <rect x="125" y="40" width="15" height="25" fill="#f59e0b"/>
  </g>
  
  <!-- Cranes -->
  <g transform="translate(300, 200)">
    <!-- Crane base -->
    <rect x="0" y="0" width="20" height="100" fill="#6b7280"/>
    <!-- Crane arm -->
    <rect x="20" y="0" width="80" height="10" fill="#6b7280"/>
    <!-- Crane hook -->
    <line x1="60" y1="10" x2="60" y2="40" stroke="#6b7280" stroke-width="3"/>
    <path d="M55 40 L65 40 L60 50 Z" fill="#6b7280"/>
  </g>
  
  <!-- Main title -->
  <text x="600" y="150" text-anchor="middle" font-family="Arial, sans-serif" font-size="48" font-weight="bold" fill="white">
    JLK Transservice
  </text>
  
  <!-- Subtitle -->
  <text x="600" y="200" text-anchor="middle" font-family="Arial, sans-serif" font-size="24" fill="white" opacity="0.9">
    บริการนำเข้า-ส่งออก และโลจิสติกส์ครบวงจร
  </text>
  
  <!-- Tagline -->
  <text x="600" y="230" text-anchor="middle" font-family="Arial, sans-serif" font-size="18" fill="white" opacity="0.8">
    Import • Export • Logistics • Customs
  </text>
  
  <!-- Contact info -->
  <text x="600" y="580" text-anchor="middle" font-family="Arial, sans-serif" font-size="16" fill="white" opacity="0.7">
    📞 02-123-4567 • 📧 info@jlktran.com • 🌐 www.jlktran.com
  </text>
</svg>